<svg xmlns="http://www.w3.org/2000/svg" viewBox="0 0 1024 1024">
  <title>Profer icon concept — Wave Crest</title>
  <desc>A single broad wave rises and breaks into three soft crests.</desc>
  <path fill="#151515" d="M151 669c80-14 141-57 184-129 40-67 88-115 143-144 92-49 201-42 300 17 39 24 74 54 106 91-100-42-195-38-273 13-57 37-99 91-128 156-31 72-76 125-137 158-60 32-129 40-195 18Z"/>
  <path fill="#151515" d="M151 669c86 33 174 26 248-23 57-38 101-93 130-160 28-63 69-115 122-150 66-44 143-57 225-40-86-51-181-57-267-17-62 29-113 78-156 145-47 73-105 116-185 130-39 7-78 6-117-3Z" fill-rule="evenodd"/>
</svg>
